<svg t="1723472825029" class="icon" viewBox="0 0 1024 1024" version="1.1" xmlns="http://www.w3.org/2000/svg" p-id="4573" width="48" height="48"><path d="M908.8 377.6c0-6.4 0-6.4 0 0-6.4-6.4-96-102.4-217.6-192C563.2 96 460.8 44.8 448 38.4 435.2 32 422.4 32 409.6 32c-19.2 0-44.8 6.4-70.4 25.6-32 19.2-64 51.2-96 89.6-64 89.6-83.2 185.6-38.4 224 0 0 57.6 64 160 140.8l-256 332.8c-12.8 12.8-12.8 38.4 0 57.6 6.4 12.8 19.2 32 32 38.4 19.2 12.8 70.4 44.8 89.6 44.8 19.2 0 32-6.4 38.4-19.2l6.4-6.4L512 627.2c57.6 38.4 108.8 70.4 153.6 83.2 12.8 6.4 19.2 6.4 32 6.4 19.2 0 44.8-6.4 70.4-19.2 38.4-19.2 70.4-57.6 102.4-96s51.2-83.2 57.6-128c6.4-44.8 0-76.8-19.2-96zM249.6 332.8s-6.4-12.8 0-44.8c6.4-32 19.2-70.4 44.8-102.4 51.2-64 96-89.6 115.2-89.6h12.8c12.8 6.4 83.2 38.4 166.4 96-6.4 6.4-6.4 12.8-12.8 12.8-32 25.6-70.4 64-102.4 108.8s-57.6 89.6-70.4 128c0 6.4-6.4 12.8-6.4 19.2-83.2-64-140.8-121.6-147.2-128z m-25.6 595.2c-12.8-6.4-38.4-19.2-51.2-32l-19.2-19.2 249.6-320 6.4 6.4 38.4 25.6-224 339.2z m409.6-326.4c0 6.4-6.4 12.8-6.4 19.2-38.4-25.6-102.4-57.6-166.4-108.8-6.4-19.2 6.4-83.2 64-160 25.6-38.4 57.6-70.4 83.2-96 19.2-12.8 32-19.2 44.8-19.2 64 44.8 115.2 96 153.6 128-6.4 0-12.8 6.4-19.2 6.4-32 19.2-70.4 57.6-96 96-25.6 51.2-44.8 96-57.6 134.4z m230.4-140.8c-6.4 32-25.6 70.4-51.2 102.4s-51.2 64-83.2 76.8c-19.2 12.8-32 12.8-38.4 12.8 0 0-6.4-12.8 0-38.4 6.4-32 25.6-64 51.2-102.4 25.6-32 51.2-64 83.2-83.2 19.2-12.8 32-12.8 32-12.8 6.4 6.4 12.8 19.2 6.4 44.8z" fill="#0C83F5" p-id="4574"></path><path d="M249.6 332.8s-6.4-12.8 0-44.8c6.4-32 19.2-70.4 44.8-102.4 51.2-64 96-89.6 115.2-89.6h12.8c12.8 6.4 83.2 38.4 166.4 96-6.4 6.4-6.4 12.8-12.8 12.8-32 25.6-70.4 64-102.4 108.8s-57.6 89.6-70.4 128c0 6.4-6.4 12.8-6.4 19.2-83.2-64-140.8-121.6-147.2-128zM460.8 512c-6.4-19.2 6.4-83.2 64-160 25.6-38.4 57.6-70.4 83.2-96 19.2-12.8 32-19.2 44.8-19.2 64 44.8 115.2 96 153.6 128-6.4 0-12.8 6.4-19.2 6.4-32 19.2-70.4 57.6-96 96-32 38.4-51.2 83.2-64 121.6 0 6.4-6.4 12.8-6.4 19.2-32-12.8-96-44.8-160-96zM864 460.8c-6.4 32-25.6 70.4-51.2 102.4s-51.2 64-83.2 76.8c-19.2 12.8-32 12.8-38.4 12.8 0 0-6.4-12.8 0-38.4 6.4-32 25.6-64 51.2-102.4 25.6-32 51.2-64 83.2-83.2 19.2-12.8 32-12.8 32-12.8 6.4 6.4 12.8 19.2 6.4 44.8z" fill="#C6E2FF" p-id="4575"></path></svg>